 <svg  version="1.0" xmlns="http://www.w3.org/2000/svg"  width="268.000000pt" height="85.000000pt" viewBox="0 0 268.000000 85.000000"  preserveAspectRatio="xMidYMid meet">  <g transform="translate(0.000000,85.000000) scale(0.050000,-0.050000)" fill="#e60a15" stroke="none"> <path d="M200 1410 l0 -90 100 0 100 0 0 -522 0 -523 45 12 c25 7 70 13 100 13 l55 0 0 510 0 510 100 0 100 0 0 90 0 90 -300 0 -300 0 0 -90z"/> <path d="M880 918 l0 -583 45 12 c25 7 70 13 100 13 l55 0 0 250 0 250 100 0 100 0 0 -242 0 -243 62 13 c35 6 80 12 100 12 36 0 38 26 38 550 l0 550 -100 0 -100 0 0 -230 c0 -171 -6 -230 -25 -230 -14 0 -59 -6 -100 -13 l-75 -12 0 242 0 243 -100 0 -100 0 0 -582z"/> <path d="M1605 956 l5 -543 140 4 c77 2 196 9 265 16 l125 12 0 77 0 78 -165 0 -165 0 0 150 0 150 136 0 136 0 -6 85 -6 85 -130 -7 -130 -6 0 141 0 142 165 0 165 0 0 80 0 80 -270 0 -271 0 6 -544z"/> <path d="M2380 1492 c0 -5 -40 -230 -90 -501 -110 -604 -110 -551 -1 -551 l90 0 13 100 13 100 115 0 115 0 13 -100 13 -100 100 0 c120 0 119 -57 9 542 -49 268 -90 495 -90 503 0 8 -67 15 -150 15 -82 0 -150 -4 -150 -8z m177 -403 c13 -95 30 -198 36 -230 12 -58 10 -59 -73 -59 -83 0 -85 1 -73 59 6 32 23 135 36 230 31 214 43 214 74 0z"/> <path d="M2820 1420 l0 -80 100 0 100 0 0 -450 0 -450 100 0 100 0 0 450 0 450 100 0 100 0 0 80 0 80 -300 0 -300 0 0 -80z"/> <path d="M3480 960 l0 -540 113 0 112 0 -9 220 -9 220 63 0 c92 0 110 -31 110 -192 0 -240 9 -261 115 -276 115 -15 106 -39 88 234 -13 197 -23 241 -58 279 l-42 45 48 56 c42 48 49 77 49 196 0 254 -57 298 -383 298 l-197 0 0 -540z m356 356 c52 -52 30 -255 -29 -277 -103 -39 -116 -23 -119 146 l-2 155 63 0 c35 0 74 -11 87 -24z"/> <path d="M4180 942 c0 -616 -8 -582 132 -582 l68 0 0 570 0 570 -100 0 -100 0 0 -558z"/> <path d="M4480 1494 c0 -3 44 -127 99 -276 l98 -271 -108 -298 c-59 -163 -105 -299 -103 -300 2 -2 45 -9 95 -15 l92 -12 67 214 c37 118 73 221 79 228 7 8 43 -96 81 -233 l70 -247 97 -13 c130 -17 130 -37 12 334 l-104 329 100 283 99 283 -96 0 -95 0 -66 -199 c-77 -235 -75 -235 -147 8 l-57 191 -106 0 c-59 0 -107 -3 -107 -6z"/> </g> </svg> 