<?xml version="1.0" encoding="UTF-8"?>
<svg xmlns="http://www.w3.org/2000/svg" xmlns:xlink="http://www.w3.org/1999/xlink" width="250px" height="79px" viewBox="0 0 249 79" version="1.1">
<g id="surface1">
<path style=" stroke:none;fill-rule:nonzero;fill:rgb(90.196078%,3.921569%,8.235294%);fill-opacity:1;" d="M 9.292969 13.507812 L 9.292969 17.699219 L 18.582031 17.699219 L 18.582031 66.375 L 20.671875 65.816406 C 21.832031 65.492188 23.925781 65.210938 25.316406 65.210938 L 27.875 65.210938 L 27.875 17.699219 L 37.164062 17.699219 L 37.164062 9.316406 L 9.292969 9.316406 Z M 9.292969 13.507812 "/>
<path style=" stroke:none;fill-rule:nonzero;fill:rgb(90.196078%,3.921569%,8.235294%);fill-opacity:1;" d="M 40.878906 36.425781 L 40.878906 63.582031 L 42.972656 63.023438 C 44.132812 62.695312 46.222656 62.417969 47.617188 62.417969 L 50.171875 62.417969 L 50.171875 39.128906 L 59.460938 39.128906 L 59.460938 61.71875 L 62.34375 61.113281 C 63.96875 60.832031 66.058594 60.554688 66.988281 60.554688 C 68.660156 60.554688 68.753906 59.34375 68.753906 34.933594 L 68.753906 9.316406 L 59.460938 9.316406 L 59.460938 20.03125 C 59.460938 27.996094 59.183594 30.742188 58.300781 30.742188 C 57.652344 30.742188 55.558594 31.023438 53.65625 31.347656 L 50.171875 31.90625 L 50.171875 9.316406 L 40.878906 9.316406 Z M 40.878906 36.425781 "/>
<path style=" stroke:none;fill-rule:nonzero;fill:rgb(90.196078%,3.921569%,8.235294%);fill-opacity:1;" d="M 74.5625 34.65625 L 74.792969 59.949219 L 81.296875 59.761719 C 84.875 59.667969 90.402344 59.34375 93.605469 59.015625 L 99.414062 58.457031 L 99.414062 51.238281 L 84.082031 51.238281 L 84.082031 37.265625 L 96.71875 37.265625 L 96.164062 29.34375 L 90.125 29.671875 L 84.082031 29.949219 L 84.082031 16.769531 L 99.414062 16.769531 L 99.414062 9.316406 L 74.28125 9.316406 Z M 74.5625 34.65625 "/>
<path style=" stroke:none;fill-rule:nonzero;fill:rgb(90.196078%,3.921569%,8.235294%);fill-opacity:1;" d="M 110.5625 9.6875 C 110.5625 9.921875 108.707031 20.402344 106.382812 33.023438 C 101.273438 61.160156 101.273438 58.691406 106.335938 58.691406 L 110.515625 58.691406 L 111.121094 54.03125 L 111.726562 49.375 L 122.410156 49.375 L 123.011719 54.03125 L 123.617188 58.691406 L 128.261719 58.691406 C 133.835938 58.691406 133.792969 61.347656 128.679688 33.445312 C 126.40625 20.960938 124.5 10.386719 124.5 10.015625 C 124.5 9.640625 121.386719 9.316406 117.53125 9.316406 C 113.722656 9.316406 110.5625 9.503906 110.5625 9.6875 Z M 118.785156 28.460938 C 119.390625 32.886719 120.179688 37.683594 120.457031 39.175781 C 121.015625 41.875 120.921875 41.921875 117.066406 41.921875 C 113.210938 41.921875 113.117188 41.875 113.675781 39.175781 C 113.953125 37.683594 114.746094 32.886719 115.347656 28.460938 C 116.789062 18.492188 117.347656 18.492188 118.785156 28.460938 Z M 118.785156 28.460938 "/>
<path style=" stroke:none;fill-rule:nonzero;fill:rgb(90.196078%,3.921569%,8.235294%);fill-opacity:1;" d="M 131.003906 13.042969 L 131.003906 16.769531 L 140.292969 16.769531 L 140.292969 58.691406 L 149.585938 58.691406 L 149.585938 16.769531 L 158.875 16.769531 L 158.875 9.316406 L 131.003906 9.316406 Z M 131.003906 13.042969 "/>
<path style=" stroke:none;fill-rule:nonzero;fill:rgb(90.196078%,3.921569%,8.235294%);fill-opacity:1;" d="M 161.664062 34.46875 L 161.664062 59.621094 L 172.117188 59.621094 L 171.28125 39.128906 L 174.207031 39.128906 C 178.480469 39.128906 179.316406 40.570312 179.316406 48.070312 C 179.316406 59.25 179.734375 60.226562 184.660156 60.925781 C 190 61.625 189.582031 62.742188 188.746094 50.027344 C 188.144531 40.851562 187.679688 38.800781 186.054688 37.03125 L 184.101562 34.933594 L 186.332031 32.328125 C 188.28125 30.089844 188.609375 28.738281 188.609375 23.195312 C 188.609375 11.367188 185.960938 9.316406 170.816406 9.316406 L 161.664062 9.316406 Z M 178.203125 17.886719 C 180.617188 20.308594 179.597656 29.765625 176.855469 30.789062 C 172.070312 32.605469 171.464844 31.859375 171.328125 23.988281 L 171.234375 16.769531 L 174.160156 16.769531 C 175.785156 16.769531 177.597656 17.28125 178.203125 17.886719 Z M 178.203125 17.886719 "/>
<path style=" stroke:none;fill-rule:nonzero;fill:rgb(90.196078%,3.921569%,8.235294%);fill-opacity:1;" d="M 194.183594 35.308594 C 194.183594 64 193.8125 62.417969 200.316406 62.417969 L 203.472656 62.417969 L 203.472656 9.316406 L 194.183594 9.316406 Z M 194.183594 35.308594 "/>
<path style=" stroke:none;fill-rule:nonzero;fill:rgb(90.196078%,3.921569%,8.235294%);fill-opacity:1;" d="M 208.121094 9.59375 C 208.121094 9.734375 210.164062 15.511719 212.71875 22.453125 L 217.269531 35.074219 L 212.253906 48.957031 C 209.511719 56.546875 207.375 62.882812 207.46875 62.929688 C 207.5625 63.023438 209.558594 63.347656 211.882812 63.628906 L 216.15625 64.1875 L 219.269531 54.21875 C 220.988281 48.722656 222.660156 43.925781 222.9375 43.597656 C 223.265625 43.226562 224.9375 48.070312 226.703125 54.453125 L 229.953125 65.957031 L 234.460938 66.5625 C 240.5 67.355469 240.5 68.285156 235.015625 51.003906 L 230.1875 35.679688 L 234.832031 22.5 L 239.429688 9.316406 L 230.558594 9.316406 L 227.492188 18.585938 C 223.914062 29.53125 224.007812 29.53125 220.664062 18.210938 L 218.015625 9.316406 L 213.089844 9.316406 C 210.347656 9.316406 208.121094 9.457031 208.121094 9.59375 Z M 208.121094 9.59375 "/>
</g>
</svg>
