<?xml version="1.0" encoding="UTF-8"?>
<svg xmlns="http://www.w3.org/2000/svg" xmlns:xlink="http://www.w3.org/1999/xlink" width="110px" height="35px" viewBox="0 0 110 35" version="1.1">
<g id="surface1">
<path style=" stroke:none;fill-rule:nonzero;fill:rgb(90.196078%,3.921569%,8.235294%);fill-opacity:1;" d="M 4.308594 5.984375 L 4.308594 7.839844 L 8.394531 7.839844 L 8.394531 29.40625 L 9.316406 29.160156 C 9.824219 29.015625 10.746094 28.890625 11.359375 28.890625 L 12.484375 28.890625 L 12.484375 7.839844 L 16.570312 7.839844 L 16.570312 4.128906 L 4.308594 4.128906 Z M 4.308594 5.984375 "/>
<path style=" stroke:none;fill-rule:nonzero;fill:rgb(90.196078%,3.921569%,8.235294%);fill-opacity:1;" d="M 18.207031 16.136719 L 18.207031 28.167969 L 19.128906 27.921875 C 19.636719 27.777344 20.558594 27.652344 21.171875 27.652344 L 22.296875 27.652344 L 22.296875 17.335938 L 26.382812 17.335938 L 26.382812 27.34375 L 27.652344 27.074219 C 28.367188 26.949219 29.285156 26.828125 29.695312 26.828125 C 30.429688 26.828125 30.472656 26.292969 30.472656 15.476562 L 30.472656 4.128906 L 26.382812 4.128906 L 26.382812 8.875 C 26.382812 12.402344 26.261719 13.621094 25.871094 13.621094 C 25.585938 13.621094 24.664062 13.746094 23.828125 13.886719 L 22.296875 14.136719 L 22.296875 4.128906 L 18.207031 4.128906 Z M 18.207031 16.136719 "/>
<path style=" stroke:none;fill-rule:nonzero;fill:rgb(90.196078%,3.921569%,8.235294%);fill-opacity:1;" d="M 33.027344 15.355469 L 33.128906 26.558594 L 35.992188 26.476562 C 37.566406 26.433594 39.996094 26.292969 41.40625 26.144531 L 43.960938 25.898438 L 43.960938 22.699219 L 37.214844 22.699219 L 37.214844 16.511719 L 42.777344 16.511719 L 42.53125 13 L 39.875 13.144531 L 37.214844 13.269531 L 37.214844 7.429688 L 43.960938 7.429688 L 43.960938 4.128906 L 32.902344 4.128906 Z M 33.027344 15.355469 "/>
<path style=" stroke:none;fill-rule:nonzero;fill:rgb(90.196078%,3.921569%,8.235294%);fill-opacity:1;" d="M 48.867188 4.292969 C 48.867188 4.394531 48.050781 9.039062 47.027344 14.628906 C 44.78125 27.097656 44.78125 26.003906 47.007812 26.003906 L 48.847656 26.003906 L 49.113281 23.9375 L 49.378906 21.875 L 54.082031 21.875 L 54.34375 23.9375 L 54.613281 26.003906 L 56.65625 26.003906 C 59.109375 26.003906 59.089844 27.179688 56.839844 14.816406 C 55.839844 9.285156 55 4.601562 55 4.4375 C 55 4.269531 53.628906 4.128906 51.933594 4.128906 C 50.257812 4.128906 48.867188 4.210938 48.867188 4.292969 Z M 52.484375 12.609375 C 52.75 14.570312 53.097656 16.695312 53.222656 17.355469 C 53.46875 18.550781 53.425781 18.574219 51.730469 18.574219 C 50.03125 18.574219 49.992188 18.550781 50.238281 17.355469 C 50.359375 16.695312 50.707031 14.570312 50.972656 12.609375 C 51.605469 8.191406 51.851562 8.191406 52.484375 12.609375 Z M 52.484375 12.609375 "/>
<path style=" stroke:none;fill-rule:nonzero;fill:rgb(90.196078%,3.921569%,8.235294%);fill-opacity:1;" d="M 57.863281 5.777344 L 57.863281 7.429688 L 61.949219 7.429688 L 61.949219 26.003906 L 66.039062 26.003906 L 66.039062 7.429688 L 70.125 7.429688 L 70.125 4.128906 L 57.863281 4.128906 Z M 57.863281 5.777344 "/>
<path style=" stroke:none;fill-rule:nonzero;fill:rgb(90.196078%,3.921569%,8.235294%);fill-opacity:1;" d="M 71.351562 15.269531 L 71.351562 26.414062 L 75.953125 26.414062 L 75.582031 17.335938 L 76.871094 17.335938 C 78.75 17.335938 79.121094 17.972656 79.121094 21.296875 C 79.121094 26.25 79.304688 26.683594 81.46875 26.992188 C 83.820312 27.300781 83.636719 27.796875 83.269531 22.164062 C 83.003906 18.097656 82.800781 17.191406 82.085938 16.40625 L 81.226562 15.476562 L 82.207031 14.324219 C 83.0625 13.332031 83.207031 12.730469 83.207031 10.277344 C 83.207031 5.035156 82.042969 4.128906 75.378906 4.128906 L 71.351562 4.128906 Z M 78.628906 7.925781 C 79.691406 8.996094 79.242188 13.1875 78.035156 13.640625 C 75.929688 14.445312 75.664062 14.113281 75.605469 10.628906 L 75.5625 7.429688 L 76.851562 7.429688 C 77.566406 7.429688 78.363281 7.65625 78.628906 7.925781 Z M 78.628906 7.925781 "/>
<path style=" stroke:none;fill-rule:nonzero;fill:rgb(90.196078%,3.921569%,8.235294%);fill-opacity:1;" d="M 85.660156 15.644531 C 85.660156 28.355469 85.496094 27.652344 88.359375 27.652344 L 89.746094 27.652344 L 89.746094 4.128906 L 85.660156 4.128906 Z M 85.660156 15.644531 "/>
<path style=" stroke:none;fill-rule:nonzero;fill:rgb(90.196078%,3.921569%,8.235294%);fill-opacity:1;" d="M 91.792969 4.25 C 91.792969 4.3125 92.691406 6.871094 93.816406 9.949219 L 95.820312 15.539062 L 93.613281 21.691406 C 92.40625 25.050781 91.464844 27.859375 91.507812 27.878906 C 91.546875 27.921875 92.425781 28.066406 93.449219 28.191406 L 95.328125 28.4375 L 96.699219 24.019531 C 97.453125 21.585938 98.191406 19.460938 98.3125 19.316406 C 98.457031 19.152344 99.191406 21.296875 99.96875 24.125 L 101.398438 29.222656 L 103.382812 29.488281 C 106.039062 29.839844 106.039062 30.253906 103.625 22.597656 L 101.503906 15.808594 L 103.546875 9.96875 L 105.570312 4.128906 L 101.664062 4.128906 L 100.316406 8.234375 C 98.742188 13.082031 98.785156 13.082031 97.3125 8.066406 L 96.148438 4.128906 L 93.980469 4.128906 C 92.773438 4.128906 91.792969 4.191406 91.792969 4.25 Z M 91.792969 4.25 "/>
</g>
</svg>
